<svg width="153" height="67" viewBox="0 0 153 67" fill="none" xmlns="http://www.w3.org/2000/svg">
<g clip-path="url(#clip0_32_4286)">
<path d="M55.1241 6.56457V40.5041C55.1241 48.0869 50.891 55.0289 44.1554 58.4883C38.627 61.3283 33.0909 64.1683 27.5625 67.0006C27.5548 66.9928 27.548 66.9928 27.5403 66.986V53.9956L42.7276 44.9968L35.6166 40.8589L27.5413 45.6685V45.5503L27.5635 45.558L27.5413 27.9945L42.7286 19.2167L27.5413 10.3942L12.3984 19.1944V36.721L19.8189 41.0508L12.3984 45.0927V59.2191C11.9196 58.9758 11.4485 58.7325 10.9707 58.4893C4.23987 55.0279 0 48.0859 0 40.5032V6.56457C3.20191 4.88964 7.49402 3.02377 12.7583 1.71038C18.5953 0.249669 23.7193 -0.0527482 27.5625 0.0063783C31.4058 -0.0527482 36.5366 0.249669 42.3668 1.71038C47.6378 3.02377 51.9299 4.88964 55.1241 6.56457Z" fill="#FF8917"/>
<path d="M55.1241 6.56457V40.5041C55.1241 48.0869 50.891 55.0289 44.1554 58.4883C38.627 61.3283 33.0909 64.1683 27.5625 67.0006C27.5548 66.9928 27.548 66.9928 27.5403 66.986V53.9956L42.7276 44.9968L35.6166 40.8589L27.5413 45.6685V45.5503L27.5635 45.558L27.5413 27.9945L42.7286 19.2167L27.5413 10.3942L12.3984 19.1944V36.721L19.8189 41.0508L12.3984 45.0927V59.2191C11.9196 58.9758 11.4485 58.7325 10.9707 58.4893C4.23987 55.0279 0 48.0859 0 40.5032V6.56457C3.20191 4.88964 7.49402 3.02377 12.7583 1.71038C18.5953 0.249669 23.7193 -0.0527482 27.5625 0.0063783C31.4058 -0.0527482 36.5366 0.249669 42.3668 1.71038C47.6378 3.02377 51.9299 4.88964 55.1241 6.56457Z" fill="#FF8917"/>
<path d="M74.382 55.1908C74.382 56.3947 73.9361 57.3135 73.0461 57.9504C72.1552 58.5862 70.8493 58.9051 69.1264 58.9051C67.5545 58.9051 66.3221 58.626 65.4292 58.0686C64.5354 57.5103 63.9618 56.6651 63.7064 55.531L66.1857 55.122C66.354 55.7734 66.6819 56.2454 67.1685 56.5391C67.6561 56.8328 68.3313 56.9791 69.1961 56.9791C70.9886 56.9791 71.8843 56.4334 71.8843 55.3401C71.8843 54.9911 71.7818 54.7033 71.5757 54.4764C71.3697 54.2496 71.0795 54.0606 70.7061 53.9094C70.3317 53.7582 69.614 53.575 68.5528 53.3608C67.6357 53.1456 66.9983 52.9731 66.6384 52.8422C66.2786 52.7114 65.9535 52.5573 65.6643 52.3799C65.3741 52.2025 65.1274 51.9893 64.9252 51.7392C64.7221 51.4891 64.5644 51.1964 64.4512 50.8591C64.3381 50.5227 64.282 50.136 64.282 49.6998C64.282 48.59 64.6979 47.7399 65.5308 47.1496C66.3627 46.5603 67.5738 46.2646 69.1632 46.2646C70.7525 46.2646 71.8243 46.5031 72.5866 46.979C73.3489 47.4559 73.8413 48.243 74.0618 49.3421L71.5738 49.6824C71.4461 49.1531 71.1869 48.7557 70.7951 48.4882C70.4033 48.2207 69.8423 48.0869 69.1119 48.0869C67.5574 48.0869 66.7806 48.5754 66.7806 49.5515C66.7806 49.8714 66.8628 50.1331 67.0282 50.3366C67.1937 50.5402 67.4384 50.7127 67.7634 50.8552C68.0885 50.9977 68.7463 51.176 69.7387 51.3912C70.916 51.6413 71.7586 51.872 72.2664 52.0842C72.7743 52.2965 73.1757 52.5437 73.4717 52.8248C73.7677 53.1068 73.9941 53.4442 74.1498 53.8367C74.3066 54.2293 74.3849 54.681 74.3849 55.1918L74.382 55.1908Z" fill="white"/>
<path d="M76.2693 58.7305V46.4468H85.9098V48.4348H78.8366V51.521H85.3788V53.509H78.8366V56.7435H86.2668V58.7315H76.2693V58.7305Z" fill="white"/>
<path d="M93.8798 56.8822C95.4285 56.8822 96.5042 56.1029 97.1078 54.5462L99.3443 55.3924C98.8626 56.5779 98.1564 57.4599 97.2258 58.0386C96.2952 58.6163 95.1799 58.9061 93.8808 58.9061C91.9083 58.9061 90.3848 58.3468 89.3091 57.2283C88.2324 56.1097 87.6956 54.5443 87.6956 52.534C87.6956 50.5237 88.215 48.968 89.253 47.8872C90.2909 46.8065 91.7961 46.2656 93.7685 46.2656C95.207 46.2656 96.3784 46.5545 97.2839 47.1331C98.1883 47.7118 98.8239 48.5619 99.1895 49.6833L96.9269 50.3017C96.7364 49.6862 96.3601 49.1958 95.8009 48.8333C95.2408 48.4698 94.5811 48.2876 93.8217 48.2876C92.6609 48.2876 91.7816 48.6481 91.1809 49.3693C90.5802 50.0904 90.2803 51.145 90.2803 52.534C90.2803 53.923 90.5889 55.0241 91.207 55.7685C91.8242 56.512 92.7161 56.8842 93.8827 56.8842L93.8798 56.8822Z" fill="white"/>
<path d="M106.122 58.905C104.434 58.905 103.142 58.4921 102.245 57.6672C101.35 56.8414 100.902 55.6618 100.902 54.1274V46.4468H103.468V53.9268C103.468 54.898 103.698 55.6346 104.16 56.1367C104.621 56.6388 105.297 56.8908 106.191 56.8908C107.085 56.8908 107.812 56.6282 108.306 56.1018C108.799 55.5755 109.045 54.8214 109.045 53.8395V46.4468H111.611V53.9966C111.611 55.5542 111.131 56.7619 110.172 57.6188C109.211 58.4766 107.862 58.905 106.122 58.905Z" fill="white"/>
<path d="M122.313 58.7305L119.468 54.0663H116.458V58.7305H113.89V46.4468H120.015C121.477 46.4468 122.605 46.7618 123.4 47.3928C124.195 48.0238 124.592 48.9291 124.592 50.1087C124.592 50.9685 124.348 51.711 123.862 52.3362C123.374 52.9614 122.715 53.3723 121.886 53.5691L125.201 58.7305H122.313ZM122.008 50.2125C122.008 49.0328 121.255 48.4425 119.746 48.4425H116.458V52.0696H119.816C120.536 52.0696 121.081 51.9068 121.452 51.5811C121.822 51.2564 122.008 50.7998 122.008 50.2125Z" fill="white"/>
<path d="M126.759 58.7305V46.4468H129.326V58.7305H126.759Z" fill="white"/>
<path d="M137.243 48.4348V58.7305H134.677V48.4348H130.717V46.4468H141.21V48.4348H137.243Z" fill="white"/>
<path d="M148.632 53.6922V58.7315H146.075V53.6922L141.707 46.4478H144.395L147.336 51.6441L150.312 46.4478H153L148.632 53.6922Z" fill="white"/>
<path d="M153 42.3975H65.5163V43.1836H153V42.3975Z" fill="#FF8917"/>
<path d="M92.8834 23.8679C91.6897 23.3377 90.3848 22.8424 89.0034 22.3946C87.6269 21.9487 86.3258 21.5775 85.136 21.2935C84.0458 21.0328 83.1345 20.6034 82.4274 20.017C81.7802 19.4809 81.4659 18.8325 81.4659 18.0348C81.4659 17.112 81.8673 16.356 82.6915 15.724C83.5524 15.0649 84.6823 14.7314 86.0501 14.7314C87.5359 14.7314 88.719 15.123 89.6689 15.9275C90.6189 16.733 91.1877 17.7566 91.4082 19.0574L91.5069 19.638L97.1194 18.4835L97.0372 17.9485C96.6667 15.5253 95.4846 13.5227 93.5228 11.998C91.5775 10.4869 89.1176 9.72119 86.2107 9.72119C83.3038 9.72119 80.7781 10.5305 78.7902 12.125C76.7655 13.7515 75.7392 15.8209 75.7392 18.2771C75.7392 19.5953 75.9888 20.7788 76.4802 21.7927C76.9754 22.8153 77.6381 23.6324 78.4487 24.2227C79.2139 24.781 80.1009 25.2899 81.0857 25.7338C82.0695 26.1787 83.0871 26.5228 84.1106 26.7574C85.0799 26.9813 86.0462 27.2478 86.9807 27.5512C87.9122 27.8536 88.748 28.1667 89.4648 28.4798C90.112 28.7628 90.6411 29.1602 91.0377 29.6623C91.416 30.1421 91.5998 30.6936 91.5998 31.3469C91.5998 32.3453 91.1567 33.1508 90.2455 33.8099C89.2888 34.501 88.0264 34.8519 86.4922 34.8519C84.8013 34.8519 83.4412 34.47 82.4467 33.7169C81.4591 32.9686 80.8719 31.9401 80.6523 30.5715L80.5585 29.9841L74.9837 31.1415L75.062 31.6726C75.4325 34.186 76.6601 36.2128 78.7128 37.6977C80.7345 39.1613 83.3116 39.9028 86.3722 39.9028C89.4329 39.9028 92.0467 39.0896 94.1255 37.4854C96.2488 35.8464 97.3255 33.7401 97.3255 31.2268C97.3255 29.4268 96.9008 27.875 96.0631 26.6159C95.2273 25.3606 94.1564 24.4359 92.8825 23.8699L92.8834 23.8679Z" fill="white"/>
<path d="M109.042 10.1255L98.3209 39.4988H104.082L106.498 32.6818H120.067L122.482 39.4988H128.446L117.725 10.1255H109.041H109.042ZM108.353 27.5513L113.302 13.6808L118.216 27.5513H108.353Z" fill="white"/>
<path d="M150.892 26.458C149.99 25.5914 148.874 24.9565 147.558 24.5572C148.538 24.1133 149.372 23.5181 150.052 22.7766C151.206 21.5175 151.792 19.9492 151.792 18.1163C151.792 15.8637 150.951 13.9454 149.294 12.414C147.65 10.8961 145.509 10.1255 142.932 10.1255H130.61V39.4988H144.14C146.744 39.4988 148.891 38.7427 150.521 37.2529C152.166 35.7496 153 33.8304 153 31.5487C153 29.5141 152.291 27.8014 150.892 26.4589V26.458ZM145.438 21.314C144.709 22.0089 143.771 22.3472 142.569 22.3472H136.093V15.1357H142.569C143.772 15.1357 144.712 15.4682 145.442 16.1515C146.161 16.8262 146.511 17.6665 146.511 18.7211C146.511 19.7757 146.161 20.6267 145.439 21.314H145.438ZM136.092 27.277H143.454C144.658 27.277 145.597 27.6095 146.327 28.2928C147.046 28.9675 147.395 29.8078 147.395 30.8624C147.395 31.917 147.045 32.768 146.324 33.4552C145.595 34.1502 144.657 34.4885 143.455 34.4885H136.093V27.277H136.092Z" fill="white"/>
<path d="M65.5163 39.4984H71.1201V14.7002L65.5163 18.7412V39.4984Z" fill="white"/>
<path d="M65.5163 9.08496V10.126V14.7H71.1201V10.126V9.08496H65.5163Z" fill="white"/>
</g>
<defs>
<clipPath id="clip0_32_4286">
<rect width="153" height="67" fill="white"/>
</clipPath>
</defs>
</svg>
