<svg width="98" height="98" viewBox="0 0 98 98" fill="none" xmlns="http://www.w3.org/2000/svg">
<g clip-path="url(#clip0_240_9)">
<path d="M65.6332 36.6791C71.643 36.6791 75.8975 36.6128 80.1497 36.6912C94.2333 36.9505 99.7441 43.1283 97.5246 56.8533C95.879 67.026 93.8943 77.1711 91.4399 87.1794C89.8054 93.846 85.184 97.9159 77.7702 97.9237C53.8699 97.9469 29.9695 97.8839 6.07024 97.9998C1.68262 98.0208 -0.00441594 96.3566 0.0291457 92.0406C0.152205 75.6824 0.166748 59.322 5.895e-05 42.9639C-0.0480461 38.2251 2.09654 35.8459 6.54905 36.7718C20.6449 39.7028 29.202 32.5683 36.6304 22.0943C40.7987 16.2167 45.9303 10.9715 50.8907 5.68208C57.0191 -0.854342 65.4386 -1.77803 71.8041 3.04676C78.0555 7.78437 78.8856 15.9552 73.9073 23.7342C71.4976 27.4996 69.0923 31.2672 65.6332 36.6791ZM28.7557 91.417C45.7949 91.417 61.6293 91.715 77.4301 91.1235C80.0636 91.0253 84.0798 87.4773 84.8271 84.8078C87.5344 75.1361 89.3624 65.2007 91.0562 55.2863C92.5116 46.7668 89.8144 43.7055 81.0671 43.3689C74.4935 43.1162 67.9042 43.253 61.3217 43.2309C55.2783 43.2111 54.6205 40.429 57.5683 35.9661C60.8932 30.9317 64.3467 25.9789 67.7207 20.9764C70.6373 16.6515 72.4697 12.1953 67.2721 8.30305C62.0981 4.42953 58.2586 7.25246 54.8017 11.254C47.2202 20.0318 39.558 28.7444 32.0358 37.5718C30.6799 39.1632 28.9291 41.1662 28.9 43.0025C28.6516 58.8122 28.7579 74.6285 28.7579 91.4159L28.7557 91.417ZM6.68106 91.4193C11.2208 91.4193 14.671 91.8143 17.9499 91.2471C19.5038 90.9778 21.899 88.8976 21.927 87.5943C22.2212 74.3625 22.2156 61.1208 22.0512 47.8847C21.9818 42.2499 17.2742 43.4086 13.8812 43.3534C10.6838 43.3004 6.63296 42.4684 6.65869 47.8946C6.72469 62.0511 6.68106 76.2077 6.68106 91.4204V91.4193Z" fill="#FF8917"/>
</g>
<defs>
<clipPath id="clip0_240_9">
<rect width="98" height="98" fill="white"/>
</clipPath>
</defs>
</svg>
