<svg width="96" height="104" viewBox="0 0 96 104" fill="none" xmlns="http://www.w3.org/2000/svg">
<g clip-path="url(#clip0_240_95)">
<path d="M70.4836 103.085C67.9329 103.093 65.5784 101.714 64.3387 99.4844L52.3835 78.7916C51.3889 77.0676 51.9798 74.8651 53.7037 73.8704C55.4276 72.8758 57.6302 73.4667 58.6248 75.1906L70.58 95.8834L73.5572 88.5862C74.8241 85.7043 77.8251 83.9894 80.9508 84.3614L88.8242 85.3221L74.4214 60.5009C73.4268 58.777 74.0177 56.5745 75.7416 55.5798C77.4655 54.5852 79.6681 55.1761 80.6627 56.9L95.0655 81.7699C97.0253 85.2313 95.8083 89.6251 92.3469 91.5849C91.0301 92.3301 89.5115 92.642 88.0076 92.4764L80.1342 91.4681L77.1094 98.7177C76.049 101.238 73.6457 102.933 70.9157 103.086H70.4836V103.085ZM25.3531 103.085H24.9686C22.2386 102.932 19.8354 101.237 18.7749 98.7165L15.6537 91.4193L7.87562 92.4276C5.19333 92.7803 2.54393 91.5679 1.05817 89.3064C-0.352724 87.0097 -0.352724 84.1142 1.05817 81.8164L15.4609 56.8988C16.4556 55.1749 18.6581 54.584 20.382 55.5787C22.1059 56.5733 22.6968 58.7759 21.7022 60.4998L7.29947 85.3697L15.1252 84.3614C18.2577 83.9565 21.2769 85.6827 22.5188 88.5862L25.64 95.8834L37.3548 75.1906C38.3494 73.4667 40.552 72.8758 42.2759 73.8704C43.9998 74.8651 44.5907 77.0676 43.5961 78.7916L31.4968 99.4844C30.256 101.713 27.9027 103.092 25.3519 103.085H25.3531Z" fill="#FF8917"/>
<path d="M47.9159 84.6501C44.7164 84.6523 41.6462 83.3934 39.37 81.1455L35.1452 76.9207C34.247 76.0043 33.0198 75.486 31.7359 75.4804H26.935C20.29 75.4543 14.9106 70.0738 14.8845 63.4299V58.629C14.9072 57.2646 14.3481 55.9558 13.3478 55.028L9.07423 50.8033C6.82632 48.527 5.56627 45.4568 5.56967 42.2574C5.54585 39.0772 6.79003 36.0195 9.0266 33.7591L13.3478 29.4856C14.246 28.5794 14.7473 27.3533 14.7405 26.0763V21.2754C14.6611 14.594 20.0121 9.11261 26.6934 9.03322C26.7093 9.03322 26.7263 9.03322 26.7422 9.03322H31.5431C32.819 9.04116 34.0462 8.53986 34.9524 7.64047L39.37 3.46335C44.1675 -1.15836 51.7607 -1.15836 56.5582 3.46335L60.7829 7.68811C61.6891 8.58636 62.9152 9.08766 64.1922 9.08086H68.9931C75.6563 9.10694 81.0436 14.5169 81.0436 21.1801V25.981C81.0357 27.2569 81.537 28.4841 82.4364 29.3903L86.7099 33.6638C91.3645 38.3921 91.3645 45.9797 86.7099 50.708L82.4364 54.9327C81.5256 55.8503 81.0243 57.0967 81.0436 58.3897V63.1906C81.1502 69.8719 75.8208 75.3737 69.1394 75.4804C69.1224 75.4804 69.1054 75.4804 69.0895 75.4804H64.2886C63.0059 75.486 61.7776 76.0043 60.8793 76.9207L56.6546 81.1455C54.3318 83.441 51.1823 84.7045 47.917 84.6501H47.9159ZM26.7433 16.234C24.0917 16.234 21.9424 18.3833 21.9424 21.0349V25.8358C21.9538 29.0228 20.6915 32.0817 18.4379 34.3341L14.2131 38.6076C13.2967 39.5059 12.7784 40.733 12.7727 42.0169C12.7648 43.3167 13.2854 44.5642 14.2131 45.4738L18.4379 49.6986C20.7039 51.9624 21.9663 55.0416 21.9424 58.2445V63.0454C21.9424 65.6971 24.0917 67.8463 26.7433 67.8463H31.5443C34.7415 67.8316 37.8071 69.1132 40.0425 71.3996L44.2673 75.6244C46.209 77.4538 49.2394 77.4538 51.1811 75.6244L55.4059 71.3996C57.6413 69.1143 60.707 67.8327 63.9042 67.8463H68.7051C71.3567 67.8463 73.506 65.6971 73.506 63.0454V58.2445C73.4822 55.0416 74.7445 51.9624 77.0105 49.6986L81.284 45.4738C83.1804 43.6206 83.2144 40.5799 81.36 38.6847C81.3351 38.6587 81.309 38.6337 81.284 38.6088L77.0105 34.3352C74.757 32.0828 73.4946 29.024 73.506 25.837V21.0361C73.506 18.3844 71.3567 16.2351 68.7051 16.2351H63.9042C60.7172 16.2465 57.6583 14.9842 55.4059 12.7306L51.1811 8.50584C49.3415 6.59704 46.302 6.54033 44.392 8.38108C44.3501 8.42191 44.3081 8.46387 44.2673 8.50584L40.0425 12.7306C37.7901 14.9842 34.7312 16.2465 31.5443 16.2351H26.7433V16.234Z" fill="#FF8917"/>
<path d="M43.6155 53.2174C42.6481 53.2084 41.7203 52.8307 41.0228 52.1615L33.0531 44.1441C31.649 42.7378 31.649 40.4604 33.0531 39.0551C34.4855 37.6715 36.7572 37.6715 38.1897 39.0551L43.6144 44.5286L57.0576 31.0378C58.4901 29.6541 60.7618 29.6541 62.1942 31.0378C63.5983 32.4441 63.5983 34.7215 62.1942 36.1267L46.1583 52.1627C45.4778 52.8295 44.5659 53.2084 43.6132 53.2186L43.6155 53.2174Z" fill="#FF8917"/>
</g>
<defs>
<clipPath id="clip0_240_95">
<rect width="96" height="103.089" fill="white"/>
</clipPath>
</defs>
</svg>
