<svg width="87" height="103" viewBox="0 0 87 103" fill="none" xmlns="http://www.w3.org/2000/svg">
<g clip-path="url(#clip0_240_86)">
<path d="M72.0491 34.1915C72.0491 37.6551 72.0413 41.1188 72.0491 44.5863C72.0569 47.6127 72.0998 50.639 72.092 53.6692C72.0881 55.4615 72.0023 57.2578 71.9671 59.0502C71.9594 59.4055 72.0023 59.7687 72.053 60.1201C72.1154 60.5379 72.3728 60.7761 72.7706 60.9597C73.9681 61.5103 75.1304 62.1311 76.3201 62.6934C78.0324 63.4979 79.3273 64.8841 80.8641 65.9345C81.4141 66.3094 81.8509 66.8873 82.2566 67.434C83.5359 69.1678 84.5891 70.9992 85.3575 73.0493C86.1844 75.2556 86.6212 77.5126 86.9099 79.8165C87.1166 81.4566 86.8201 83.081 86.551 84.6977C86.4418 85.3576 86.356 86.0253 86.2039 86.6814C86.0751 87.2398 85.884 87.7825 85.6968 88.3214C85.3302 89.3796 85.022 90.473 84.5462 91.4805C84.1015 92.4294 83.493 93.3041 82.9158 94.1827C82.5764 94.6982 82.1552 95.1628 81.769 95.647C81.0201 96.5803 80.1113 97.3262 79.105 97.9666C77.7554 98.8256 76.4488 99.7628 75.0524 100.532C73.9525 101.137 72.7667 101.61 71.5771 102.02C67.4309 103.441 63.2613 103.195 59.1034 102.059C57.5861 101.645 56.139 101.028 54.8051 100.177C54.1108 99.7355 53.4165 99.2903 52.7651 98.7944C52.0396 98.2438 51.3415 97.6503 50.6667 97.0411C50.1284 96.5569 49.6136 96.0375 49.1416 95.4908C48.6267 94.8934 48.1158 94.2803 47.6945 93.6165C46.8442 92.281 46.0407 90.9143 45.2489 89.5437C45.0578 89.2078 44.8355 89.0087 44.461 88.9853C44.0554 88.9618 43.6536 88.9384 43.248 88.9384C32.4008 88.9267 21.5497 88.9189 10.7025 88.9033C9.92236 88.9033 9.14617 88.8369 8.36608 88.8173C7.16083 88.7822 6.0648 88.3253 5.05068 87.7747C4.34859 87.392 3.76742 86.7555 3.19405 86.1737C2.70259 85.6778 2.24234 85.1389 1.86789 84.5532C1.41934 83.8503 1.0644 83.0849 0.68995 82.3391C0.214093 81.3902 0.178988 80.3476 0.143884 79.3206C0.077576 77.4345 0.0346708 75.5445 0.0307704 73.6585C0.011268 63.9196 0.011268 54.1807 0.00346709 44.4458C0.00346709 39.3577 -0.00433386 34.2735 0.00346709 29.1854C0.011268 22.7891 0.0229694 16.3889 0.0424718 9.99268C0.0424718 9.3679 0.0463723 8.7392 0.139984 8.12613C0.217993 7.61068 0.409116 7.11085 0.588538 6.61493C0.709452 6.27911 0.916177 5.97452 1.04879 5.64651C1.43494 4.69762 1.99271 3.87368 2.7533 3.1786C3.13945 2.82716 3.45148 2.39371 3.83763 2.03837C4.61382 1.31986 5.57724 0.96061 6.57966 0.69898C8.47529 0.191341 10.4333 0.0507639 12.4031 0.046859C15.2543 0.0390492 18.1056 0.0507639 20.9568 0.046859C26.3004 0.0351443 31.648 0 36.9955 0C41.0169 0 45.0383 0.0273344 49.0597 0.0429541C52.4102 0.0546688 55.7607 0.0312393 59.1112 0.0859082C61.4008 0.124957 63.6903 0.234295 65.9409 0.73022C67.3373 1.03871 68.5425 1.62835 69.346 2.89745C69.7751 3.5769 70.3407 4.16655 70.758 4.84991C71.4094 5.91595 71.7643 7.13038 71.8228 8.35652C71.9671 11.3008 72.0257 14.249 72.0452 17.1973C72.0764 22.8594 72.053 28.5254 72.053 34.1876L72.0491 34.1915ZM7.41826 44.887C7.41826 47.9914 7.41826 51.0958 7.41826 54.2003C7.41826 61.3775 7.40656 68.5547 7.42996 75.732C7.43386 77.2549 7.36366 78.7856 7.80441 80.2851C7.99163 80.9255 8.31927 81.3355 8.95115 81.4136C9.87556 81.5269 10.8117 81.6245 11.74 81.6284C18.9871 81.6518 26.2341 81.6557 33.4812 81.6596C36.4105 81.6596 39.3436 81.6557 42.2729 81.6362C43.2285 81.6323 43.6341 81.2613 43.7668 80.3124C43.8565 79.6642 43.9696 79.0082 43.9618 78.36C43.9345 76.1888 44.933 74.295 45.5181 72.2878C45.5571 72.159 45.678 72.0535 45.7287 71.9247C45.8535 71.5928 46.0056 71.2608 46.0524 70.9172C46.1343 70.3237 45.9159 70.0659 45.3269 70.0113C44.816 69.9644 44.3011 69.9449 43.7863 69.9449C38.1579 69.9449 32.5334 69.9605 26.905 69.9449C23.8353 69.9371 20.7657 69.8707 17.696 69.8434C16.8691 69.8355 16.089 69.6598 15.5273 69.0311C15.1529 68.6133 14.8565 68.1018 14.6341 67.5824C14.2636 66.7194 14.1271 65.8369 14.8955 65.0637C15.0086 64.9466 15.0515 64.7631 15.1373 64.6147C15.2309 64.4546 15.305 64.2476 15.4493 64.1617C16.1943 63.7165 16.9081 63.2011 17.8325 63.1855C18.4722 63.1777 19.108 63.0957 19.7477 63.0918C22.8173 63.0683 25.887 63.0527 28.9567 63.041C31.7455 63.0332 34.5382 63.0254 37.3271 63.0293C42.347 63.0332 47.363 63.0566 52.3829 63.0449C52.9016 63.0449 53.4555 62.9512 53.9275 62.7442C54.9338 62.303 55.8894 61.7524 56.8723 61.2642C57.161 61.1198 57.4847 61.0456 57.7928 60.9401C58.2063 60.7996 58.6158 60.6512 59.0332 60.5223C59.6378 60.3349 60.2345 60.1084 60.8547 59.9951C61.7128 59.839 62.5826 59.7648 63.4524 59.6632C64.1038 59.589 64.4665 59.2025 64.5641 58.5816C64.6304 58.152 64.6538 57.7108 64.646 57.2773C64.5953 53.9386 64.4939 50.5999 64.486 47.2612C64.4626 36.7765 64.486 26.2879 64.4704 15.8032C64.4704 13.5891 64.4314 11.375 64.3417 9.16484C64.2988 8.03241 63.9244 7.73174 62.7971 7.64583C62.6255 7.63411 62.4539 7.6224 62.2823 7.61849C60.6168 7.58725 58.9474 7.53649 57.2819 7.53649C42.8501 7.52868 28.4145 7.52868 13.9828 7.53649C12.2861 7.53649 10.5854 7.59506 8.88874 7.6224C8.48699 7.63021 8.12815 7.73174 7.99553 8.15737C7.83951 8.66111 7.68349 9.17265 7.59378 9.692C7.27004 11.5507 7.43776 13.4251 7.45727 15.2956C7.48847 18.7905 7.42606 22.2854 7.42216 25.7803C7.41436 32.1453 7.42216 38.5142 7.42216 44.8792L7.41826 44.887ZM63.3471 93.2143C63.3471 93.2143 63.3471 93.1791 63.351 93.1596C63.585 93.1596 63.8191 93.1713 64.0531 93.1596C64.6616 93.1245 65.2037 92.9995 65.586 92.4333C65.9019 91.9647 66.3193 91.5664 66.6625 91.1134C67.271 90.3129 67.8873 89.5163 68.4489 88.6846C69.1627 87.6342 69.8063 86.533 70.5201 85.4825C71.0856 84.6508 71.7019 83.8542 72.3065 83.0498C72.7082 82.5187 73.1334 82.0033 73.5507 81.4839C74.0734 80.8357 74.6234 80.207 75.1148 79.5354C75.7545 78.6567 76.3591 77.7508 76.9598 76.8488C77.2952 76.345 77.6345 75.8413 77.9154 75.3063C78.282 74.5995 78.1923 73.8225 78.1845 73.0571C78.1728 72.0652 77.4668 71.542 76.7452 71.2179C75.9534 70.8625 75.0329 70.9133 74.1787 71.1788C73.9135 71.2647 73.6678 71.4717 73.4532 71.6669C73.188 71.909 72.954 72.1824 72.7316 72.4636C72.2246 73.1079 71.7214 73.76 71.2378 74.4238C70.6995 75.1618 70.1768 75.9155 69.662 76.6691C69.2602 77.2549 68.8819 77.8601 68.4801 78.4498C67.8834 79.3167 67.349 80.2421 66.6508 81.0192C65.7537 82.0189 64.9112 83.0459 64.2247 84.19C63.7255 85.0218 62.7074 85.1702 62.0483 84.4516C61.9312 84.3267 61.7986 84.2174 61.6699 84.1041C60.5154 83.0615 59.353 82.0267 58.2141 80.9724C57.4496 80.2656 56.7202 79.5158 55.9674 78.8012C55.043 77.9226 53.2761 77.9656 52.379 78.8715C52.2581 78.9926 52.1021 79.0707 51.9772 79.1878C51.8329 79.3245 51.634 79.4612 51.5872 79.6291C51.3454 80.535 51.283 81.4644 51.7393 82.3196C52.0279 82.8623 52.4375 83.3466 52.8041 83.8464C53.0343 84.1588 53.2683 84.4712 53.5335 84.7523C54.0718 85.3263 54.6413 85.8769 55.1834 86.4471C55.6203 86.9039 56.0376 87.3842 56.4706 87.845C57.0635 88.4737 57.6602 89.0985 58.2687 89.7194C58.7134 90.1723 59.1697 90.6136 59.63 91.051C60.1409 91.543 60.648 92.0428 61.1824 92.5075C61.4437 92.734 61.7401 92.9605 62.06 93.0581C62.4695 93.183 62.9181 93.1791 63.351 93.2299L63.3471 93.2143Z" fill="#F68924"/>
<path d="M36.2495 47.0412C30.8239 47.0412 25.4023 47.0412 19.9767 47.0412C19.0406 47.0412 18.1084 46.9905 17.1723 46.9827C16.4936 46.9748 15.9241 46.7523 15.4756 46.2368C14.8515 45.5222 14.2976 44.7569 14.321 43.7572C14.3327 43.3277 14.4731 42.8864 14.6214 42.4725C14.7618 42.0781 14.9646 41.7032 15.183 41.3479C15.3156 41.137 15.5341 40.9769 15.7174 40.8051C15.7603 40.766 15.8422 40.7699 15.8851 40.7309C17.0358 39.657 18.4906 39.821 19.8753 39.8132C26.4359 39.782 33.0004 39.7859 39.561 39.782C43.9724 39.782 48.3838 39.8171 52.7953 39.7664C54.254 39.7468 55.5568 40.11 56.805 40.7895C56.922 40.8519 57.0234 40.9613 57.1131 41.0667C57.3549 41.344 57.5968 41.6212 57.8113 41.918C57.9361 42.0898 58.0765 42.2929 58.0882 42.4881C58.1272 43.2183 58.174 43.9563 58.0921 44.6749C58.0492 45.0419 57.7567 45.3855 57.5461 45.7175C57.4056 45.94 57.2028 46.1158 57.0507 46.3305C56.6801 46.8421 56.1185 46.9553 55.5646 46.9827C54.2892 47.0451 53.0098 47.0686 51.7343 47.0686C46.574 47.0764 41.4176 47.0686 36.2573 47.0686C36.2573 47.0608 36.2573 47.049 36.2573 47.0412H36.2495Z" fill="#F68924"/>
<path d="M36.4461 24.209C32.0815 24.209 27.7168 24.2441 23.3561 24.1934C21.3045 24.1699 19.2489 23.9903 17.2012 23.8497C16.1246 23.7755 15.4187 23.1117 14.9116 22.2136C14.7205 21.8778 14.5294 21.5224 14.4357 21.1514C14.268 20.4876 14.2524 19.8238 14.7127 19.2341C14.8336 19.0779 14.9194 18.8788 14.9701 18.6874C15.1963 17.7893 15.8711 17.4457 16.6863 17.3285C17.6419 17.1919 18.6014 17.0513 19.5649 17.0318C22.4785 16.9693 25.3922 16.9419 28.3058 16.938C36.177 16.9263 44.0442 16.9263 51.9154 16.9419C53.4404 16.9419 54.9811 16.9458 56.4477 17.4457C57.3292 17.7425 57.8987 18.418 58.0781 19.3161C58.2068 19.9487 58.1561 20.6204 58.1639 21.2725C58.1639 21.4873 58.1561 21.7411 58.0469 21.909C57.5788 22.6353 57.1771 23.4553 56.2449 23.7014C54.4741 24.166 52.6565 24.1192 50.8544 24.1348C46.0569 24.1738 41.2554 24.1465 36.4578 24.1465C36.4578 24.1699 36.4578 24.1934 36.4578 24.2168L36.4461 24.209Z" fill="#F68924"/>
</g>
<defs>
<clipPath id="clip0_240_86">
<rect width="87" height="103" fill="white"/>
</clipPath>
</defs>
</svg>
