<svg width="56" height="67" viewBox="0 0 56 67" fill="none" xmlns="http://www.w3.org/2000/svg">
<path d="M55.1241 6.56457V40.5041C55.1241 48.0869 50.891 55.0289 44.1554 58.4883C38.627 61.3283 33.0909 64.1683 27.5625 67.0006C27.5548 66.9928 27.548 66.9928 27.5403 66.986V53.9956L42.7276 44.9968L35.6166 40.8589L27.5413 45.6685V45.5503L27.5635 45.558L27.5413 27.9945L42.7286 19.2167L27.5413 10.3942L12.3984 19.1944V36.721L19.8189 41.0508L12.3984 45.0927V59.2191C11.9196 58.9758 11.4485 58.7325 10.9707 58.4893C4.23987 55.0279 0 48.0859 0 40.5032V6.56457C3.20191 4.88964 7.49402 3.02377 12.7583 1.71038C18.5953 0.249669 23.7193 -0.0527482 27.5625 0.0063783C31.4058 -0.0527482 36.5366 0.249669 42.3668 1.71038C47.6378 3.02377 51.9299 4.88964 55.1241 6.56457Z" fill="#FF8917"/>
</svg>
